<svg xmlns="http://www.w3.org/2000/svg" viewBox="0 0 512 512" role="img" aria-label="MY IPTV icon">
  <defs>
    <linearGradient id="bg" x1="0" y1="0" x2="1" y2="1">
      <stop offset="0%" stop-color="#101010"/>
      <stop offset="100%" stop-color="#232323"/>
    </linearGradient>
    <linearGradient id="accent" x1="0" y1="0" x2="1" y2="1">
      <stop offset="0%" stop-color="#00e5ff"/>
      <stop offset="100%" stop-color="#c3f5ff"/>
    </linearGradient>
    <filter id="glow" x="-30%" y="-30%" width="160%" height="160%">
      <feGaussianBlur stdDeviation="12" result="b"/>
      <feColorMatrix in="b" type="matrix" values="1 0 0 0 0  0 1 0 0 0  0 0 1 0 0  0 0 0 0.65 0"/>
    </filter>
  </defs>
  <rect width="512" height="512" rx="112" fill="url(#bg)"/>
  <rect x="68" y="92" width="376" height="228" rx="36" fill="#0c0c0c" stroke="rgba(195,245,255,0.16)" stroke-width="6"/>
  <rect x="92" y="116" width="328" height="180" rx="24" fill="#14181a"/>
  <path d="M132 214h78v34h-78zM230 190h118v58H230zM366 164h38v110h-38z" fill="url(#accent)" opacity="0.9"/>
  <circle cx="256" cy="244" r="46" fill="url(#accent)" filter="url(#glow)" opacity="0.45"/>
  <path d="M238 218l56 26-56 26z" fill="#0b1417"/>
  <rect x="212" y="330" width="88" height="24" rx="12" fill="url(#accent)"/>
  <rect x="188" y="354" width="136" height="18" rx="9" fill="#3b3b3b"/>
  <path d="M128 392c28-18 60-26 128-26s100 8 128 26" fill="none" stroke="rgba(195,245,255,0.35)" stroke-width="10" stroke-linecap="round"/>
</svg>
